<svg width="24" height="24" viewBox="0 0 24 24" fill="none" xmlns="http://www.w3.org/2000/svg">
<path d="M1.25206 3.56592L1.14786 4.49968L1.05168 5.52427L1.00359 6.12272L0.935465 7.12461L0.895388 7.85932L0.844625 9.05356L0.819246 9.90984L0.803215 10.8115L0.797873 11.756L0.803215 12.7004L0.819246 13.6021L0.844625 14.4584L0.876686 15.2679L0.914089 16.028L0.980885 17.07L1.02764 17.6978L1.14786 19.0149L1.25339 19.9474C1.28666 20.2213 1.38315 20.4837 1.53527 20.7138C1.68738 20.944 1.89094 21.1357 2.12986 21.2737C2.36878 21.4117 2.63652 21.4922 2.91191 21.5089C3.18731 21.5256 3.46283 21.4781 3.71669 21.37L4.37125 21.0855L5.50137 20.5699L6.3296 20.1718L6.94141 19.8699L7.94062 19.3609L8.65931 18.9829L9.41539 18.5741L10.2089 18.1346L11.0358 17.6631L11.8573 17.1822L12.6348 16.716L13.7155 16.048L14.6906 15.4202L15.2824 15.0301L15.8248 14.6641L16.5461 14.1658L17.3303 13.6048L17.9047 13.1786C18.1252 13.0127 18.3041 12.7977 18.4272 12.5506C18.5503 12.3036 18.6143 12.0313 18.614 11.7553C18.6137 11.4793 18.5493 11.2071 18.4257 10.9603C18.3021 10.7135 18.1228 10.4989 17.902 10.3333L17.4679 10.01L16.9041 9.60126L16.2135 9.11635L15.4026 8.56331L14.4756 7.95149L13.7943 7.51467L13.0649 7.05781L12.2888 6.58359L11.4646 6.09467L11.0371 5.8462C10.7593 5.6859 10.4867 5.52961 10.2182 5.38L9.43276 4.94451L8.68068 4.53841L7.62136 3.98538L6.65287 3.49779L6.06243 3.21059L5.26493 2.83254L4.19358 2.34897L3.71936 2.14325C3.46537 2.03466 3.18958 1.9867 2.91384 2.00316C2.6381 2.01963 2.36998 2.10006 2.13071 2.2381C1.89145 2.37614 1.6876 2.56799 1.53533 2.79846C1.38305 3.02893 1.28519 3.29168 1.25206 3.56592ZM20.5283 2.41042C20.2011 2.41046 19.8853 2.53058 19.6408 2.74801C19.3963 2.96543 19.2401 3.26502 19.2018 3.58997L19.1924 3.74626V19.7764C19.1925 20.1036 19.3126 20.4194 19.53 20.6639C19.7474 20.9084 20.047 21.0646 20.372 21.1029L20.5283 21.1122H21.8641C22.1913 21.1122 22.5071 20.992 22.7516 20.7746C22.9961 20.5572 23.1523 20.2576 23.1906 19.9327L23.2 19.7764V3.74626C23.1999 3.41907 23.0798 3.10327 22.8624 2.85876C22.6449 2.61426 22.3453 2.45805 22.0204 2.41977L21.8641 2.41042H20.5283Z" fill="white"/>
</svg>
