<svg width="24" height="24" viewBox="0 0 24 24" fill="none" xmlns="http://www.w3.org/2000/svg">
<path d="M21.3333 3.66667V20.3333C21.3333 20.7754 21.1577 21.1993 20.8452 21.5118C20.5326 21.8244 20.1087 22 19.6667 22H15.5C15.058 22 14.6341 21.8244 14.3215 21.5118C14.0089 21.1993 13.8333 20.7754 13.8333 20.3333V3.66667C13.8333 3.22464 14.0089 2.80072 14.3215 2.48816C14.6341 2.17559 15.058 2 15.5 2H19.6667C20.1087 2 20.5326 2.17559 20.8452 2.48816C21.1577 2.80072 21.3333 3.22464 21.3333 3.66667ZM8.83333 2H4.66667C4.22464 2 3.80072 2.17559 3.48816 2.48816C3.17559 2.80072 3 3.22464 3 3.66667V20.3333C3 20.7754 3.17559 21.1993 3.48816 21.5118C3.80072 21.8244 4.22464 22 4.66667 22H8.83333C9.27536 22 9.69928 21.8244 10.0118 21.5118C10.3244 21.1993 10.5 20.7754 10.5 20.3333V3.66667C10.5 3.22464 10.3244 2.80072 10.0118 2.48816C9.69928 2.17559 9.27536 2 8.83333 2Z" fill="white"/>
</svg>
