<svg width="24" height="24" viewBox="0 0 24 24" fill="none" xmlns="http://www.w3.org/2000/svg">
<path d="M3.3356 3.60507L3.2288 4.56217L3.13021 5.61237L3.08092 6.22579L3.01109 7.25272L2.97001 8.0058L2.91798 9.2299L2.89196 10.1076L2.87553 11.0318L2.87005 11.9999L2.87553 12.9679L2.89196 13.8922L2.91798 14.7698L2.95084 15.5996L2.98918 16.3787L3.05764 17.4467L3.10556 18.0902L3.2288 19.4403L3.33696 20.396C3.37106 20.6768 3.46997 20.9457 3.62589 21.1817C3.7818 21.4176 3.99045 21.6141 4.23534 21.7555C4.48023 21.897 4.75467 21.9795 5.03695 21.9966C5.31923 22.0138 5.60163 21.965 5.86184 21.8543L6.53277 21.5626L7.69114 21.0341L8.54007 20.6261L9.16718 20.3166L10.1914 19.7949L10.928 19.4075L11.703 18.9885L12.5163 18.538L13.3639 18.0546L14.206 17.5617L15.0029 17.0839L16.1106 16.3992L17.1101 15.7557L17.7167 15.3559L18.2726 14.9807L19.012 14.47L19.8158 13.8949L20.4045 13.4581C20.6306 13.288 20.8139 13.0676 20.9401 12.8144C21.0663 12.5612 21.1319 12.2821 21.1316 11.9992C21.1313 11.7163 21.0652 11.4373 20.9386 11.1843C20.8119 10.9314 20.6281 10.7113 20.4018 10.5416L19.9568 10.2103L19.379 9.79129L18.6711 9.29426L17.8399 8.72739L16.8897 8.10028L16.1914 7.65254L15.4438 7.18426L14.6482 6.69818L13.8034 6.19704L13.3653 5.94236C13.0805 5.77805 12.8011 5.61785 12.5259 5.4645L11.7208 5.01812L10.9499 4.60187L9.86413 4.03501L8.87143 3.53524L8.26622 3.24085L7.44879 2.85336L6.35066 2.35769L5.86458 2.14683C5.60424 2.03553 5.32156 1.98637 5.03892 2.00324C4.75629 2.02012 4.48146 2.10256 4.23622 2.24405C3.99097 2.38554 3.78203 2.58219 3.62595 2.81842C3.46986 3.05465 3.36956 3.32398 3.3356 3.60507Z" fill="white"/>
</svg>
