<svg width="24" height="24" viewBox="0 0 24 24" fill="none" xmlns="http://www.w3.org/2000/svg">
<path d="M22.7479 3.56592L22.8521 4.49968L22.9483 5.52427L22.9964 6.12272L23.0645 7.12461L23.1046 7.85932L23.1554 9.05356L23.1808 9.90984L23.1968 10.8115L23.2021 11.756L23.1968 12.7004L23.1808 13.6021L23.1554 14.4584L23.1233 15.2679L23.0859 16.028L23.0191 17.07L22.9724 17.6978L22.8521 19.0149L22.7466 19.9474C22.7133 20.2213 22.6168 20.4837 22.4647 20.7138C22.3126 20.944 22.1091 21.1357 21.8701 21.2737C21.6312 21.4117 21.3635 21.4922 21.0881 21.5089C20.8127 21.5256 20.5372 21.4781 20.2833 21.37L19.6287 21.0855L18.4986 20.5699L17.6704 20.1718L17.0586 19.8699L16.0594 19.3609L15.3407 18.9829L14.5846 18.5741L13.7911 18.1346L12.9642 17.6631L12.1427 17.1822L11.3652 16.716L10.2845 16.048L9.30937 15.4202L8.71759 15.0301L8.17524 14.6641L7.45388 14.1658L6.66974 13.6048L6.09533 13.1786C5.8748 13.0127 5.69591 12.7977 5.5728 12.5506C5.44969 12.3036 5.38574 12.0313 5.38599 11.7553C5.38625 11.4793 5.45072 11.2071 5.57429 10.9603C5.69787 10.7135 5.87716 10.4989 6.098 10.3333L6.53215 10.01L7.09587 9.60126L7.7865 9.11635L8.59736 8.56331L9.52444 7.95149L10.2057 7.51467L10.9351 7.05781L11.7112 6.58359L12.5354 6.09467L12.9629 5.8462C13.2407 5.6859 13.5133 5.52961 13.7818 5.38L14.5672 4.94451L15.3193 4.53841L16.3786 3.98538L17.3471 3.49779L17.9376 3.21059L18.7351 2.83254L19.8064 2.34897L20.2806 2.14325C20.5346 2.03466 20.8104 1.9867 21.0862 2.00316C21.3619 2.01963 21.63 2.10006 21.8693 2.2381C22.1086 2.37614 22.3124 2.56799 22.4647 2.79846C22.6169 3.02893 22.7148 3.29168 22.7479 3.56592ZM3.47173 2.41042C3.79893 2.41046 4.11472 2.53058 4.35923 2.74801C4.60374 2.96543 4.75994 3.26502 4.79823 3.58997L4.80758 3.74626V19.7764C4.80753 20.1036 4.68741 20.4194 4.46999 20.6639C4.25257 20.9084 3.95297 21.0646 3.62803 21.1029L3.47173 21.1122H2.13589C1.8087 21.1122 1.4929 20.992 1.2484 20.7746C1.00389 20.5572 0.847681 20.2576 0.8094 19.9327L0.800049 19.7764V3.74626C0.800092 3.41907 0.920216 3.10327 1.13764 2.85876C1.35506 2.61426 1.65465 2.45805 1.9796 2.41977L2.13589 2.41042H3.47173Z" fill="white"/>
</svg>
