<svg width="24" height="24" viewBox="0 0 24 24" fill="none" xmlns="http://www.w3.org/2000/svg">
<path d="M1.99829 10.7499C1.99829 11.4414 2.55693 12 3.2484 12C3.93987 12 4.49851 11.4414 4.49851 10.7499C4.49851 8.6794 6.17834 6.99957 8.24883 6.99957H14.4994V8.24967C14.4994 8.75362 14.8041 9.2107 15.2729 9.40602C15.7417 9.60135 16.2769 9.49197 16.6363 9.13647L19.1365 6.63625C19.6248 6.14793 19.6248 5.35489 19.1365 4.86657L16.6363 2.36635C16.2769 2.00695 15.7417 1.90147 15.2729 2.0968C14.8041 2.29213 14.4994 2.74529 14.4994 3.24924V4.49935H8.24883C4.79541 4.49935 1.99829 7.29647 1.99829 10.7499ZM22 13.2501C22 12.5586 21.4414 12 20.7499 12C20.0585 12 19.4998 12.5586 19.4998 13.2501C19.4998 15.3206 17.82 17.0004 15.7495 17.0004H9.49894V15.7503C9.49894 15.2464 9.19423 14.7893 8.72544 14.594C8.25665 14.3986 7.72144 14.508 7.36204 14.8635L4.86182 17.3637C4.3735 17.8521 4.3735 18.6451 4.86182 19.1334L7.36204 21.6336C7.72144 21.9931 8.25665 22.0985 8.72544 21.9032C9.19423 21.7079 9.49894 21.2547 9.49894 20.7469V19.5007H15.7495C19.2029 19.5007 22 16.7035 22 13.2501Z" fill="white"/>
</svg>
