<svg width="24" height="24" viewBox="0 0 24 24" fill="none" xmlns="http://www.w3.org/2000/svg">
<path d="M11.7829 5.41125V2.51978C11.7829 2.05341 12.3425 1.82541 12.6638 2.15705L16.602 6.08489C16.8093 6.29217 16.8093 6.61344 16.602 6.82072L12.6742 10.7486C12.3425 11.0698 11.7829 10.8418 11.7829 10.3755V7.484C7.91721 7.484 4.85992 11.0284 5.70974 15.0391C6.19684 17.3917 8.10376 19.2883 10.446 19.7754C14.1458 20.5526 17.4415 18.0135 17.9389 14.5831C17.9759 14.3395 18.0984 14.1171 18.2845 13.9556C18.4706 13.7942 18.7082 13.7044 18.9546 13.7022C19.5764 13.7022 20.0739 14.2515 19.9909 14.8733C19.3484 19.423 15.0164 22.7912 10.1143 21.8377C6.88084 21.2056 4.27955 18.6043 3.64736 15.3708C2.62136 10.0542 6.6632 5.41125 11.7829 5.41125Z" fill="white"/>
</svg>
