<svg width="24" height="24" viewBox="0 0 24 24" fill="none" xmlns="http://www.w3.org/2000/svg">
<path d="M14.5953 2.76934C14.5953 2.63325 14.5592 2.49959 14.4907 2.38199C14.4222 2.2644 14.3237 2.16709 14.2053 2.09999C14.0869 2.03289 13.9529 1.99841 13.8168 2.00006C13.6807 2.00171 13.5475 2.03943 13.4307 2.10939L5.92199 6.61218H3.05755C1.78224 6.61218 0.75 7.64289 0.75 8.91973V15.0763C0.75 16.3516 1.7807 17.3838 3.05755 17.3838H5.92199L13.4292 21.8897C13.546 21.96 13.6794 21.9981 13.8157 21.9999C13.952 22.0018 14.0863 21.9674 14.205 21.9002C14.3236 21.8331 14.4223 21.7356 14.4909 21.6178C14.5594 21.5 14.5955 21.3661 14.5953 21.2297V2.76934ZM21.0672 11.9934L23.2424 14.1671L22.1548 15.2547L19.9796 13.081L17.8043 15.2547L16.7167 14.1671L18.8919 11.9934L16.7167 9.81967L17.8043 8.73205L19.9796 10.9058L22.1564 8.73205L23.2424 9.81967L21.0672 11.9934Z" fill="white"/>
</svg>
