<svg width="24" height="24" viewBox="0 0 24 24" fill="none" xmlns="http://www.w3.org/2000/svg">
<g clip-path="url(#clip0_26_3365)">
<path d="M14.8453 2.76934C14.8453 2.63325 14.8092 2.49959 14.7407 2.38199C14.6722 2.2644 14.5737 2.16709 14.4553 2.09999C14.3369 2.03289 14.2029 1.99841 14.0668 2.00006C13.9307 2.00171 13.7975 2.03943 13.6807 2.10939L6.17199 6.61218H3.30755C2.03224 6.61218 1 7.64289 1 8.91973V15.0763C1 16.3516 2.03071 17.3838 3.30755 17.3838H6.17199L13.6792 21.8897C13.796 21.96 13.9294 21.9981 14.0657 21.9999C14.202 22.0018 14.3363 21.9674 14.455 21.9002C14.5736 21.8331 14.6723 21.7356 14.7409 21.6178C14.8094 21.5 14.8455 21.3661 14.8453 21.2297V2.76934Z" fill="white"/>
<path d="M19.2297 12.0028C19.2297 10.3387 18.2125 8.91375 16.7688 8.31375L16 10.1606C16.7219 10.4606 17.2281 11.1731 17.2281 12.0075C17.2281 12.8372 16.7219 13.5497 16 13.8544L16.7688 15.7012C18.2125 15.0919 19.2297 13.6669 19.2297 12.0028ZM18.3062 4.62L17.5375 6.46687C19.7078 7.37156 21.2313 9.50906 21.2313 12.0028C21.2313 14.5012 19.7078 16.6341 17.5375 17.5387L18.3062 19.3856C21.1984 18.1809 23.2281 15.3309 23.2281 12.0028C23.2281 8.67468 21.1984 5.82468 18.3062 4.62Z" fill="white"/>
</g>
<defs>
<clipPath id="clip0_26_3365">
<rect width="24" height="24" fill="white"/>
</clipPath>
</defs>
</svg>
